<?xml version="1.0" standalone="no"?>
<!DOCTYPE svg PUBLIC "-//W3C//DTD SVG 20010904//EN"
 "http://www.w3.org/TR/2001/REC-SVG-20010904/DTD/svg10.dtd">
<svg version="1.0" xmlns="http://www.w3.org/2000/svg"
 width="400.000000pt" height="400.000000pt" viewBox="0 0 400.000000 400.000000"
 preserveAspectRatio="xMidYMid meet">

<g transform="translate(0.000000,400.000000) scale(0.100000,-0.100000)"
fill="#000000" stroke="none">
<path d="M0 2000 l0 -2000 899 0 899 0 10 28 c25 65 111 123 211 143 56 11 69
10 115 -6 94 -34 151 -79 165 -131 5 -22 14 -30 34 -32 31 -4 34 10 12 48 -8
14 -14 46 -15 72 0 56 27 232 43 272 l11 29 175 -6 c97 -4 230 -3 296 2 77 6
124 5 132 -1 7 -5 16 -8 20 -5 4 3 76 1 158 -4 231 -13 335 -24 335 -37 -1
-11 -38 -222 -50 -282 -7 -30 -16 -63 -21 -72 -9 -17 6 -18 281 -18 l290 0 0
2000 0 2000 -2000 0 -2000 0 0 -2000z m1074 1676 c-7 -56 -20 -79 -30 -53 -3
9 -10 15 -14 12 -4 -3 -13 9 -20 25 -8 20 -20 30 -34 30 -19 0 -18 2 8 19 15
10 44 19 62 18 l34 -1 -6 -50z m2506 -109 c64 -30 87 -49 123 -98 32 -43 61
-150 53 -194 -14 -74 -74 -158 -151 -211 -94 -65 -253 -80 -355 -33 -70 33
-136 99 -168 168 -21 45 -24 64 -20 120 8 108 56 180 161 237 68 37 104 44
212 40 72 -2 101 -8 145 -29z m-981 0 c12 3 25 -4 35 -19 16 -22 15 -23 -5
-28 -15 -4 -26 -18 -33 -44 l-11 -38 -24 21 c-18 15 -33 20 -60 17 l-36 -5 28
24 27 24 -35 7 c-50 9 -43 20 17 27 28 4 56 11 62 17 6 6 12 7 14 1 2 -5 11
-7 21 -4z m-756 -159 c14 -7 28 -22 29 -33 2 -12 12 -21 26 -23 12 -2 22 -8
22 -13 0 -5 -3 -8 -7 -8 -36 6 -42 -11 -14 -38 19 -18 19 -18 -5 -19 -14 -1
-21 2 -18 8 4 6 -2 8 -15 3 -12 -4 -21 -2 -21 4 0 6 -9 11 -20 11 -11 0 -20 6
-20 13 0 7 -20 19 -45 26 -56 17 -60 36 -6 27 26 -4 42 -2 47 6 4 6 2 14 -4
16 -7 2 -12 8 -12 13 0 6 5 7 10 4 6 -3 10 -1 10 4 0 14 10 14 43 -1z m-1078
-203 c-1 -27 -3 -57 -5 -65 -4 -11 4 -16 30 -19 l35 -3 -35 -13 c-23 -8 -34
-18 -32 -29 2 -9 -2 -16 -8 -16 -6 0 -9 -3 -7 -7 3 -5 -6 -16 -19 -26 -13 -10
-24 -13 -24 -7 0 6 -4 8 -10 5 -6 -4 -10 5 -10 19 0 25 -22 36 -34 17 -3 -4
-17 -6 -31 -3 -19 3 -23 7 -15 17 8 9 8 15 0 20 -18 11 -11 21 17 23 36 3 37
5 23 46 -15 45 -6 59 31 51 24 -6 29 -3 29 13 0 26 10 33 40 30 23 -3 25 -7
25 -53z m1861 -117 c76 -82 155 -259 202 -458 14 -58 25 -130 19 -130 -2 0
-53 25 -113 56 -111 57 -347 144 -390 144 -13 0 -24 2 -24 5 0 13 36 107 61
162 16 34 29 65 29 68 0 12 120 183 132 188 30 12 47 5 84 -35z m-1630 -124
c129 -56 348 -232 409 -326 l17 -28 -68 -30 c-38 -17 -85 -40 -104 -51 -19
-11 -47 -26 -62 -32 -16 -6 -28 -15 -28 -19 0 -4 -4 -8 -10 -8 -24 0 -190
-139 -190 -159 0 -4 -11 -18 -24 -30 -22 -21 -24 -21 -31 -4 -12 33 -26 175
-32 328 -4 117 -1 176 13 268 21 134 18 132 110 91z m2585 -254 c15 -9 17 -15
9 -30 -8 -16 -6 -23 9 -37 32 -27 10 -43 -42 -31 -38 10 -107 62 -76 57 30 -4
49 2 49 14 0 12 19 37 28 37 2 0 12 -5 23 -10z m-3191 -32 c0 -19 2 -20 10 -8
8 13 10 12 10 -2 0 -29 -35 -22 -36 7 -1 14 2 25 7 25 5 0 9 -10 9 -22z m51 7
c8 19 9 19 6 1 -3 -29 -27 -33 -26 -4 1 20 2 21 7 3 l5 -20 8 20z m195 -40 c4
-8 10 -15 16 -15 5 0 6 5 3 10 -3 6 -2 10 4 10 19 0 21 -19 3 -29 -11 -6 -33
-6 -56 -1 -49 11 -58 20 -15 16 19 -2 25 -1 15 1 -16 4 -17 7 -5 14 20 13 29
11 35 -6z m-179 -109 c56 -32 76 -33 96 -3 12 18 23 22 70 22 30 0 59 -3 63
-7 4 -4 2 -33 -5 -64 -6 -32 -11 -98 -11 -148 l0 -91 -48 -32 c-68 -45 -78
-49 -168 -67 -76 -16 -87 -16 -155 0 -86 19 -140 53 -132 84 6 24 19 26 27 5
3 -8 13 -15 23 -14 11 0 13 3 6 6 -7 2 -13 9 -13 15 0 5 14 -2 31 -16 43 -36
69 -40 134 -21 41 11 69 28 100 60 40 40 79 108 73 126 -2 4 -21 1 -43 -7 -82
-30 -176 -54 -213 -54 -64 0 -126 11 -147 26 -17 13 -18 16 -5 24 8 5 29 7 46
4 32 -6 158 27 189 50 16 11 15 14 -9 29 -24 16 -27 16 -45 -2 -13 -13 -27
-17 -46 -13 -20 3 -24 7 -13 14 9 7 7 8 -9 5 -45 -10 -20 62 32 92 31 18 119
6 172 -23z m2112 -189 c24 -12 46 -27 48 -34 3 -7 9 -13 15 -13 22 0 67 -67
109 -165 16 -35 25 -138 17 -190 -17 -120 -82 -197 -185 -219 -25 -6 -34 -3
-42 12 -11 21 -69 48 -124 57 -30 5 -44 16 -75 58 -37 50 -44 64 -71 149 -20
62 -16 176 8 230 62 137 170 178 300 115z m-518 -68 c81 -40 149 -127 149
-189 0 -17 7 -61 15 -99 11 -47 13 -74 6 -92 -9 -23 -10 -23 -10 9 -1 43 -24
85 -60 111 -37 27 -74 27 -111 -1 -31 -22 -40 -41 -17 -32 7 2 21 -4 31 -15
26 -29 6 -61 -39 -61 -33 0 -34 0 -28 -37 10 -64 62 -113 117 -113 37 0 83 37
97 77 6 19 13 32 16 30 10 -11 -51 -123 -77 -143 -8 -7 -26 -21 -39 -33 -13
-12 -30 -21 -37 -21 -7 0 -14 -4 -16 -10 -5 -15 -98 -29 -148 -23 -79 10 -142
52 -203 135 -15 20 -27 43 -27 50 0 8 -6 20 -12 26 -9 9 -13 47 -13 116 0 93
3 108 29 162 35 71 78 119 129 146 76 39 179 42 248 7z m-1898 -29 c3 -11 1
-18 -4 -14 -5 3 -9 12 -9 20 0 20 7 17 13 -6z m2750 -231 l56 -11 -86 -84
c-78 -76 -94 -104 -59 -104 7 0 45 30 83 68 118 113 106 106 144 85 51 -28 91
-54 117 -77 l22 -20 -137 -46 c-171 -58 -188 -66 -172 -86 13 -16 45 -19 53
-5 3 5 20 11 38 14 32 5 179 57 226 80 16 8 28 8 40 1 26 -16 121 -146 128
-174 4 -14 13 -36 21 -49 29 -45 7 -247 -42 -381 -61 -169 -202 -377 -340
-499 -22 -20 -53 -48 -68 -63 -16 -16 -31 -28 -33 -28 -3 0 -26 -10 -52 -22
-26 -12 -69 -25 -95 -29 -27 -4 -94 -27 -149 -49 -84 -35 -120 -44 -207 -52
-58 -5 -149 -16 -201 -25 -156 -25 -246 -30 -425 -21 -188 9 -293 23 -333 44
-15 8 -42 14 -60 14 -18 0 -31 4 -28 9 4 5 -13 24 -36 42 -191 146 -371 418
-393 592 -1 12 -6 47 -10 78 l-7 56 44 11 c23 7 66 16 93 21 28 5 79 17 115
26 36 9 81 19 100 22 19 3 40 9 45 13 6 4 19 10 30 14 17 6 16 4 -5 -21 -14
-15 -35 -38 -48 -50 -12 -12 -32 -44 -43 -70 -17 -40 -20 -60 -15 -118 6 -74
34 -159 68 -209 27 -40 177 -186 191 -186 5 0 25 -11 43 -25 18 -14 35 -25 38
-25 4 0 70 -31 149 -70 78 -38 171 -77 207 -85 103 -25 343 -31 477 -11 92 14
129 25 203 60 78 37 109 60 210 156 220 208 381 474 380 629 0 59 -29 122 -68
149 -47 34 -142 31 -208 -7 -51 -30 -114 -92 -114 -114 -1 -26 -78 -95 -140
-124 -38 -18 -170 -56 -176 -50 -3 3 -7 36 -9 73 -2 38 -7 98 -10 134 l-6 65
42 20 c49 24 84 80 84 137 0 21 4 38 9 38 4 0 34 12 66 26 41 18 67 39 92 72
43 57 55 91 64 182 7 79 5 77 97 59z m-1298 -151 c4 -18 18 -55 31 -83 55
-114 174 -195 286 -195 66 0 135 17 156 37 7 7 18 13 23 13 16 0 108 91 115
114 4 12 10 23 14 26 4 3 14 25 23 49 13 39 15 42 21 23 4 -12 12 -22 17 -22
5 0 9 -6 9 -14 0 -8 6 -16 13 -19 8 -3 5 -10 -10 -21 -32 -24 -73 -98 -73
-131 0 -16 9 -48 21 -71 15 -33 32 -49 72 -68 28 -14 59 -26 69 -26 19 0 20
-9 22 -215 l1 -60 -75 -3 c-87 -4 -298 16 -306 29 -3 5 -14 9 -25 9 -18 0 -98
24 -161 49 -73 28 -114 46 -118 52 -3 4 -45 21 -95 38 -68 24 -104 32 -147 30
-32 -1 -61 1 -65 4 -3 4 0 7 7 7 29 0 89 36 90 53 0 18 -29 24 -45 8 -23 -21
-202 -73 -466 -135 -36 -8 -73 -18 -82 -22 -13 -5 -17 0 -17 22 0 70 49 190
115 282 35 48 56 52 165 28 127 -28 216 -45 268 -52 47 -5 52 -4 52 14 0 28
-47 44 -170 57 -25 3 -61 10 -80 14 -19 5 -62 12 -94 16 l-59 7 29 24 c38 31
203 114 227 114 17 0 83 -34 97 -49 27 -31 85 -71 100 -71 34 0 23 34 -20 60
-22 14 -40 28 -40 32 0 4 -14 15 -31 23 -39 20 -32 27 39 41 89 18 90 17 97
-18z m840 -161 c21 -16 13 -37 -14 -37 -22 0 -45 25 -36 40 9 14 28 13 50 -3z
m-1960 -824 c-19 -45 -64 -123 -71 -123 -7 0 6 52 24 90 34 71 75 99 47 33z
m-125 7 c0 -10 -7 -35 -15 -55 -8 -19 -22 -51 -30 -70 -8 -19 -22 -35 -31 -35
-13 0 -15 8 -10 48 7 62 16 92 35 114 21 24 51 23 51 -2z m224 -82 c-21 -42
-77 -117 -87 -118 -12 0 2 59 20 88 28 46 45 62 65 62 18 0 18 -2 2 -32z
m2970 -74 c3 -9 6 -25 6 -36 0 -15 4 -18 18 -13 9 4 31 10 47 13 l30 4 -29
-31 c-23 -24 -26 -31 -13 -31 9 0 17 -4 17 -10 0 -5 -16 -10 -35 -10 -40 0
-40 -2 -20 -60 8 -24 13 -51 10 -61 -6 -17 -11 -15 -55 14 -27 18 -50 37 -50
44 0 18 -21 27 -30 13 -5 -8 -9 -8 -13 4 -4 9 1 19 11 25 14 8 11 12 -21 27
-42 20 -48 34 -14 34 12 0 28 9 35 20 7 11 21 20 32 20 11 0 20 6 20 13 0 32
43 49 54 21z m-2880 -26 c-8 -13 -53 -53 -86 -77 -11 -7 -22 -10 -26 -6 -4 4
1 12 11 19 9 7 17 18 17 24 0 6 12 20 28 31 30 23 68 29 56 9z m166 -24 c0
-15 -38 -39 -102 -65 -38 -16 -73 -29 -77 -29 -9 0 53 49 63 50 5 0 17 6 25
14 24 20 91 43 91 30z m-394 -60 c92 -31 155 -94 167 -168 7 -42 -35 -82 -148
-142 -27 -15 -76 -44 -108 -65 -84 -56 -157 -90 -157 -73 0 8 4 14 10 14 5 0
38 24 72 53 35 29 91 70 126 92 l63 39 -49 18 c-31 12 -65 35 -90 62 -22 24
-46 46 -55 49 -9 3 -17 23 -19 49 -7 62 18 88 87 88 28 0 74 -7 101 -16z m404
-77 c0 -8 -10 -19 -22 -25 -39 -18 -127 -44 -140 -40 -16 6 54 48 105 64 54
16 57 17 57 1z m-580 -62 c4 3 6 -5 2 -17 -5 -21 -6 -21 -13 -2 -4 10 -8 24
-8 29 1 6 3 4 6 -3 2 -6 8 -10 13 -7z m-15 -85 c3 -6 -1 -7 -9 -4 -18 7 -21
14 -7 14 6 0 13 -4 16 -10z m2039 -162 c-4 -35 -8 -71 -8 -80 0 -10 -1 -18 -3
-18 -1 0 -30 17 -65 38 -62 36 -65 37 -168 37 -102 0 -107 1 -157 33 -29 19
-53 34 -53 35 0 1 48 1 106 1 58 -1 140 1 182 5 42 3 99 7 125 9 l49 2 -8 -62z"/>
<path d="M3321 3533 c-62 -22 -122 -86 -144 -152 -22 -68 -21 -88 3 -155 50
-132 204 -193 328 -131 93 47 163 152 162 244 -1 34 -31 100 -62 134 -62 67
-191 94 -287 60z m63 -129 c9 -8 21 -25 27 -36 9 -17 17 -19 55 -13 34 5 45 3
50 -9 7 -17 -33 -100 -72 -151 -30 -40 -70 -49 -59 -14 7 20 0 30 -48 68 -14
11 -20 11 -32 1 -20 -16 -19 0 0 55 8 22 15 45 15 52 0 26 20 63 34 63 8 0 22
-7 30 -16z"/>
<path d="M3360 3333 c0 -10 -7 -28 -15 -40 -17 -24 -14 -28 30 -37 26 -6 33
-3 48 23 21 36 21 41 -1 41 -10 0 -28 7 -40 16 -20 14 -22 14 -22 -3z"/>
<path d="M690 3046 c0 -2 7 -7 16 -10 8 -3 12 -2 9 4 -6 10 -25 14 -25 6z"/>
<path d="M171 2217 c2 -1 13 -9 24 -17 19 -14 19 -14 6 3 -7 9 -18 17 -24 17
-6 0 -8 -1 -6 -3z"/>
<path d="M2348 2069 c-26 -15 -22 -25 10 -24 23 0 27 -4 30 -31 4 -41 -19 -61
-53 -46 -23 11 -24 10 -21 -16 6 -48 24 -79 59 -106 123 -94 207 102 90 212
-26 24 -84 30 -115 11z"/>
<path d="M3225 1619 c-38 -4 -120 -7 -182 -8 -61 0 -114 -5 -118 -10 -3 -5 3
-17 12 -27 15 -14 30 -16 103 -10 106 8 314 25 318 25 2 1 2 9 0 18 -4 20 -27
22 -133 12z"/>
<path d="M290 581 c0 -34 10 -46 79 -90 46 -30 151 -76 151 -67 0 11 -30 58
-56 87 -32 37 -73 67 -118 86 -44 20 -56 16 -56 -16z"/>
</g>
</svg>
